Coordinates
version=1
nRows=19
nColumns=24
inDegrees=yes

Units are S.I. units (second, meters, Newtons, ...)
Angles are in degrees.

endheader
time	pelvis_tilt	pelvis_list	pelvis_rotation	pelvis_tx	pelvis_ty	pelvis_tz	hip_flexion_r	hip_adduction_r	hip_rotation_r	knee_angle_r	ankle_angle_r	subtalar_angle_r	mtp_angle_r	hip_flexion_l	hip_adduction_l	hip_rotation_l	knee_angle_l	ankle_angle_l	subtalar_angle_l	mtp_angle_l	lumbar_extension	lumbar_bending	lumbar_rotation
      1.38300000	      2.21638805	      7.33155565	     -6.92243299	      0.21595384	      1.01941557	      0.25821963	     12.05269138	     -8.69818647	      0.65202415	    -65.78299012	      3.52996764	    -14.60774692	      0.66344577	      4.86523646	     11.98608051	     -0.95776811	     -7.94082743	     -0.46164216	    -18.71586155	      6.21096619	     -4.83928684	     -9.22739295	      7.47342101
      1.38716667	      2.20447159	      7.20642783	     -6.77410926	      0.22105319	      1.02012859	      0.25798634	     12.55343175	     -8.50955034	      0.58837299	    -65.37396120	      3.77575797	    -14.56430010	      0.60139073	      4.34862297	     11.91456106	     -0.70894097	     -7.60111173	     -0.37083811	    -18.73630985	      6.14111128	     -4.88040838	     -9.09639579	      7.13097361
      1.39133333	      2.18383529	      7.07452509	     -6.62495277	      0.22612608	      1.02078918	      0.25776353	     13.05430651	     -8.31023181	      0.52519404	    -64.91884046	      4.02293948	    -14.53535538	      0.54212845	      3.84975399	     11.82808880	     -0.48599406	     -7.27502093	     -0.28876279	    -18.71600838	      6.06903460	     -4.92548001	     -8.95264087	      6.87290913
      1.39550000	      2.16963034	      6.94318943	     -6.47066198	      0.23118161	      1.02142798	      0.25755347	     13.53567173	     -8.11234963	      0.45670543	    -64.41476398	      4.26278538	    -14.49711651	      0.49064701	      3.34662330	     11.73804422	     -0.26533909	     -6.95254377	     -0.20583502	    -18.67833222	      6.00156573	     -4.98339049	     -8.81426556	      6.62130130
      1.39966667	      2.14478878	      6.81113262	     -6.30899744	      0.23623895	      1.02202374	      0.25733903	     14.01336312	     -7.91536522	      0.37885299	    -63.85982127	      4.49978736	    -14.46706987	      0.46506673	      2.86062176	     11.64035708	     -0.07979419	     -6.63825519	     -0.12777148	    -18.60062583	      5.96510562	     -5.01891669	     -8.67156650	      6.44369572
      1.40383333	      2.14317572	      6.69973476	     -6.14434325	      0.24128021	      1.02259157	      0.25711605	     14.46279906	     -7.75451752	      0.28622169	    -63.27296457	      4.70943938	    -14.44136295	      0.39527743	      2.33632324	     11.56927895	      0.16799248	     -6.28936239	     -0.06020609	    -18.60555690	      5.86574141	     -5.08709852	     -8.55401145	      6.03903216
      1.40800000	      2.12523089	      6.56921228	     -5.96888009	      0.24631644	      1.02313145	      0.25689251	     14.90671116	     -7.57022162	      0.18495958	    -62.62483418	      4.88186263	    -14.40426814	      0.34652552	      1.84205229	     11.46915457	      0.38990527	     -5.97243062	      0.05333514	    -18.55090247	      5.79388292	     -5.13650013	     -8.40921207	      5.78514241
      1.41216667	      2.07251746	      6.45280201	     -5.79823402	      0.25134051	      1.02355304	      0.25669542	     15.38832975	     -7.39640810	      0.09144009	    -61.95413207	      5.08839903	    -14.38350400	      0.32908039	      1.39552495	     11.37286067	      0.56410293	     -5.66296919	      0.12714603	    -18.44676021	      5.76636936	     -5.14255185	     -8.26568898	      5.64009168
      1.41633333	      2.08471941	      6.33703530	     -5.60838192	      0.25635162	      1.02404125	      0.25647210	     15.77370783	     -7.24196672	     -0.03106888	    -61.22247840	      5.22947206	    -14.36077183	      0.28200339	      0.87087811	     11.28569143	      0.81206944	     -5.34257310	      0.23823384	    -18.42773674	      5.69680395	     -5.23037318	     -8.15801562	      5.21930249
      1.42050000	      2.04424940	      6.22622211	     -5.42041679	      0.26135841	      1.02441430	      0.25627878	     16.20935057	     -7.08235568	     -0.14162983	    -60.45914453	      5.40822777	    -14.33840446	      0.25789219	      0.41948035	     11.18908708	      1.00041716	     -5.04615906	      0.30396743	    -18.34050286	      5.65931572	     -5.25229355	     -8.04280874	      5.03011908
      1.42466667	      2.04992709	      6.13034470	     -5.23524070	      0.26633970	      1.02478845	      0.25608123	     16.59038322	     -6.95281375	     -0.26038653	    -59.66674993	      5.53269712	    -14.33567925	      0.20682673	     -0.09558503	     11.11423964	      1.24554033	     -4.71565680	      0.40061745	    -18.31507713	      5.58165189	     -5.33839914	     -7.94178191	      4.62202190
      1.42883333	      1.99866955	      6.01216060	     -5.03627197	      0.27133687	      1.02508379	      0.25588494	     17.00466251	     -6.79359929	     -0.38929438	    -58.81387292	      5.66891720	    -14.31498652	      0.18219113	     -0.52723641	     11.00158875	      1.42979462	     -4.43330409	      0.48256918	    -18.22760475	      5.54416267	     -5.34560547	     -7.81427969	      4.43833045
      1.43300000	      1.98993727	      5.91331849	     -4.83882115	      0.27631968	      1.02537745	      0.25569335	     17.36628114	     -6.66634467	     -0.52059936	    -57.93346290	      5.78179614	    -14.30065046	      0.15440124	     -1.00927335	     10.91148542	      1.63709189	     -4.13569245	      0.57488112	    -18.15035013	      5.50276126	     -5.40876670	     -7.70966666	      4.15547242
      1.43716667	      1.96277986	      5.83880122	     -4.64997011	      0.28127094	      1.02557084	      0.25552800	     17.75283956	     -6.56252665	     -0.63666059	    -57.04011669	      5.86846605	    -14.30356175	      0.10418841	     -1.47409946	     10.84369393	      1.86955968	     -3.82003356	      0.66737809	    -18.12127911	      5.42577757	     -5.45998821	     -7.63646829	      3.73334459
      1.44133333	      1.94466346	      5.75419751	     -4.45346507	      0.28623778	      1.02576876	      0.25535828	     18.10298307	     -6.45708844	     -0.77165498	    -56.09218709	      5.95059678	    -14.27800453	      0.06091690	     -1.93975909	     10.76046865	      2.07094888	     -3.52583515	      0.76447592	    -18.05880668	      5.35753557	     -5.50758853	     -7.54787681	      3.45083593
      1.44550000	      1.91607580	      5.67768187	     -4.25949621	      0.29120075	      1.02589420	      0.25519968	     18.45601699	     -6.36155980	     -0.90241388	    -55.11736006	      6.02452968	    -14.24112231	      0.02362318	     -2.38741761	     10.68181903	      2.26210628	     -3.24103332	      0.86161992	    -17.99182954	      5.29681120	     -5.54298761	     -7.46827706	      3.17477243
      1.44966667	      1.87179067	      5.60181617	     -4.06425791	      0.29615894	      1.02596866	      0.25505198	     18.81062881	     -6.26510316	     -1.02802505	    -54.10379740	      6.08169864	    -14.20425866	     -0.01321129	     -2.81377914	     10.59901071	      2.45419516	     -2.96333059	      0.95598761	    -17.91951508	      5.23423025	     -5.56434691	     -7.39273094	      2.88299847
      1.45383333	      1.82120872	      5.53503227	     -3.87378712	      0.30111678	      1.02599403	      0.25492092	     19.16117925	     -6.18170768	     -1.15207281	    -53.06040674	      6.14917513	    -14.12614853	     -0.02934261	     -3.22343975	     10.52124241	      2.61178784	     -2.69999352	      1.03334780	    -17.81920270	      5.20513486	     -5.57280896	     -7.32362375	      2.71935247
      1.45800000	      1.76972212	      5.47337071	     -3.68764244	      0.30607588	      1.02595681	      0.25480067	     19.50227026	     -6.10757397	     -1.27666770	    -51.99062526	      6.18336374	    -14.05366377	     -0.04573663	     -3.63377779	     10.44722326	      2.78161360	     -2.43376392	      1.13967954	    -17.73748833	      5.17434196	     -5.58290535	     -7.26197188	      2.47497340
